<svg id="svg" version="1.1" xmlns="http://www.w3.org/2000/svg" xmlns:xlink="http://www.w3.org/1999/xlink" width="400" height="400" viewBox="0, 0, 400,400"><g id="svgg"><path id="path0" d="M191.300 3.921 C 175.127 4.883,162.892 6.743,149.855 10.219 C 49.260 37.045,-12.774 136.760,7.614 238.864 C 30.544 353.705,149.958 423.187,261.300 386.473 C 382.698 346.445,434.162 202.614,365.681 94.749 C 332.215 42.037,277.263 9.315,213.600 4.190 C 211.007 3.982,193.778 3.774,191.300 3.921 M207.900 8.003 C 326.217 13.368,411.581 122.049,388.396 237.800 C 369.258 333.344,280.858 399.813,184.000 391.489 C 71.775 381.845,-8.093 278.929,10.515 167.939 C 26.444 72.925,111.938 3.652,207.900 8.003 M180.100 38.299 C 177.350 38.562,174.898 38.782,174.650 38.788 C 173.621 38.815,174.133 39.523,175.181 39.523 C 176.419 39.523,177.456 40.181,177.982 41.300 C 178.407 42.206,180.974 70.479,180.722 71.483 C 180.521 72.286,179.273 73.554,178.539 73.701 C 177.401 73.930,177.200 74.022,177.200 74.313 C 177.200 74.687,176.989 74.696,184.780 73.997 C 191.957 73.353,194.016 72.961,196.059 71.848 C 203.790 67.641,201.764 55.582,193.054 53.963 L 191.808 53.731 192.765 53.087 C 197.818 49.684,197.307 41.769,191.856 39.023 C 189.470 37.821,186.814 37.658,180.100 38.299 M221.812 38.604 C 204.927 40.966,200.691 66.088,215.900 73.666 C 226.462 78.929,238.289 74.855,242.117 64.635 C 247.609 49.970,237.077 36.468,221.812 38.604 M188.500 40.368 C 191.020 41.506,192.097 43.521,192.099 47.100 C 192.101 51.236,190.435 53.171,186.063 54.111 C 183.649 54.630,184.026 54.925,187.262 55.051 C 193.818 55.306,196.666 57.919,196.690 63.700 C 196.707 67.761,195.287 69.881,191.753 71.074 C 190.973 71.337,184.602 72.104,184.496 71.947 C 184.478 71.921,183.841 64.727,183.079 55.959 L 181.694 40.019 182.397 39.933 C 184.366 39.693,187.500 39.917,188.500 40.368 M227.854 40.491 C 237.662 42.239,242.158 52.640,238.014 63.994 C 232.393 79.395,211.827 76.492,210.677 60.134 C 210.104 51.978,214.040 44.123,220.063 41.405 C 221.136 40.920,221.740 40.750,223.900 40.325 C 224.750 40.158,226.365 40.225,227.854 40.491 M150.055 43.391 C 147.386 45.317,129.840 52.525,125.999 53.273 C 124.791 53.508,123.802 53.753,123.801 53.817 C 123.796 54.277,126.225 59.700,126.436 59.700 C 126.729 59.700,126.728 59.278,126.434 58.140 C 125.893 56.048,126.657 55.398,132.340 53.107 L 136.902 51.269 142.651 65.495 C 148.682 80.419,148.774 80.697,148.107 81.986 C 147.767 82.643,146.694 83.600,146.296 83.600 C 145.927 83.600,145.791 83.862,145.992 84.187 C 146.229 84.570,156.632 80.441,156.544 80.000 C 156.510 79.828,156.317 79.726,156.092 79.760 C 153.559 80.150,152.522 79.815,151.783 78.367 C 151.317 77.453,140.175 49.947,140.252 49.901 C 140.278 49.885,142.370 49.037,144.900 48.017 C 150.667 45.693,151.598 45.687,152.700 47.971 C 153.044 48.685,153.809 49.159,153.796 48.650 C 153.787 48.302,151.421 42.708,151.268 42.674 C 151.175 42.653,150.630 42.976,150.055 43.391 M264.300 51.718 C 249.528 53.801,242.403 72.577,252.400 83.075 C 264.285 95.555,283.330 88.762,285.223 71.368 C 286.396 60.583,275.304 50.166,264.300 51.718 M270.005 54.083 C 280.060 55.877,284.436 66.029,279.601 76.347 C 274.608 87.002,264.679 90.357,256.474 84.163 C 244.768 75.324,255.488 51.492,270.005 54.083 M112.706 61.135 C 111.184 62.586,108.389 64.517,100.156 69.808 C 98.536 70.849,97.209 71.807,97.206 71.938 C 97.195 72.392,97.573 72.403,98.308 71.969 C 99.242 71.418,100.522 71.401,101.424 71.928 C 102.251 72.411,118.113 96.665,118.324 97.769 C 118.505 98.715,118.118 99.817,117.362 100.508 C 117.006 100.834,116.839 100.939,116.989 100.742 C 117.498 100.076,116.916 99.864,116.159 100.440 C 113.952 102.118,113.886 102.122,102.300 101.410 C 96.800 101.071,91.895 100.728,91.400 100.647 L 90.500 100.500 89.655 91.100 C 88.663 80.069,88.674 79.894,90.459 77.564 C 91.010 76.844,91.118 76.581,90.927 76.422 C 90.678 76.216,90.276 76.599,84.821 82.232 C 83.615 83.478,83.180 84.059,83.272 84.300 C 83.385 84.594,83.477 84.571,84.028 84.107 C 84.424 83.774,84.841 83.601,85.158 83.639 C 86.213 83.767,86.286 84.086,87.616 94.401 L 88.867 104.102 98.983 104.879 C 111.563 105.844,111.975 105.781,115.392 102.338 C 116.116 101.609,116.324 101.493,116.492 101.721 C 116.667 101.958,133.518 91.358,134.459 90.421 C 134.546 90.334,134.164 88.352,133.609 86.017 C 133.054 83.682,132.600 81.736,132.600 81.692 C 132.600 81.648,132.485 81.657,132.344 81.711 C 132.153 81.784,132.090 82.525,132.094 84.655 C 132.104 89.328,131.499 90.189,125.421 94.152 L 121.990 96.389 121.126 95.044 C 120.651 94.305,118.811 91.471,117.037 88.747 L 113.812 83.794 116.456 82.070 C 121.717 78.639,121.531 78.738,122.461 78.861 C 123.114 78.947,123.458 79.148,124.013 79.770 C 124.655 80.488,125.416 80.675,125.174 80.056 C 124.913 79.386,120.855 73.402,120.662 73.401 C 120.215 73.399,120.191 73.775,120.595 74.438 C 121.056 75.195,121.095 75.668,120.771 76.596 C 120.456 77.502,113.098 82.392,112.694 81.966 C 112.501 81.762,105.198 70.573,104.541 69.474 C 104.379 69.202,113.177 63.435,114.009 63.268 C 114.921 63.086,115.930 63.555,116.790 64.561 C 117.402 65.277,117.642 65.438,117.823 65.257 C 118.050 65.030,114.782 59.586,114.431 59.608 C 114.359 59.613,113.583 60.300,112.706 61.135 M298.889 69.017 C 298.815 69.137,299.024 69.519,299.354 69.867 C 301.555 72.194,301.849 71.704,290.214 85.085 C 279.155 97.803,279.414 97.593,276.906 95.891 C 276.219 95.425,275.800 95.391,275.800 95.801 C 275.800 96.059,284.050 103.200,284.348 103.200 C 284.737 103.200,284.646 102.704,284.180 102.281 C 283.243 101.434,282.877 99.499,283.457 98.469 C 284.056 97.406,302.848 76.030,303.354 75.836 C 304.430 75.424,304.797 75.380,305.521 75.580 C 305.926 75.692,306.464 75.978,306.718 76.217 C 307.146 76.619,307.800 76.638,307.800 76.249 C 307.800 76.029,299.476 68.800,299.223 68.800 C 299.113 68.800,298.963 68.898,298.889 69.017 M313.497 81.604 C 313.428 81.716,313.603 82.083,313.886 82.419 C 314.440 83.078,314.510 83.421,314.206 83.990 C 313.925 84.514,314.171 84.458,304.120 86.304 C 299.049 87.236,294.697 88.046,294.450 88.103 C 294.010 88.205,294.000 88.271,294.000 90.946 C 294.000 92.453,293.903 96.946,293.786 100.931 C 293.502 110.506,293.570 110.780,297.104 114.344 C 298.298 115.549,298.864 116.256,298.736 116.384 C 298.518 116.602,305.526 125.167,305.938 125.188 C 306.406 125.212,306.399 124.816,305.918 124.107 C 305.060 122.843,305.074 121.322,305.953 120.295 C 306.394 119.780,327.469 102.080,328.378 101.461 C 329.558 100.658,331.151 100.895,332.350 102.052 C 333.418 103.082,333.673 102.475,332.681 101.264 C 329.619 97.525,326.305 93.690,326.092 93.639 C 325.588 93.518,325.581 94.020,326.078 94.610 C 327.018 95.727,326.964 97.455,325.953 98.624 C 325.416 99.245,304.752 116.572,303.655 117.321 C 302.275 118.263,299.120 117.396,299.506 116.181 C 299.589 115.921,299.425 115.537,299.010 115.013 C 298.670 114.583,298.191 113.797,297.946 113.266 L 297.500 112.300 297.571 101.000 C 297.610 94.785,297.657 89.682,297.677 89.661 C 297.766 89.561,316.191 87.000,316.818 87.000 C 317.910 87.000,319.462 87.534,320.604 88.303 C 321.561 88.947,322.000 89.040,322.000 88.600 C 322.000 88.402,313.995 81.400,313.769 81.400 C 313.689 81.400,313.567 81.492,313.497 81.604 M73.650 93.786 C 71.533 95.976,69.800 97.860,69.800 97.972 C 69.800 98.452,70.260 98.389,70.910 97.818 C 72.017 96.846,73.816 96.711,74.848 97.524 C 76.900 99.139,96.021 117.957,96.218 118.555 C 96.554 119.574,96.344 120.838,95.696 121.687 C 95.261 122.258,95.191 122.471,95.380 122.659 C 95.632 122.910,103.368 115.185,103.390 114.662 C 103.412 114.143,102.934 114.185,102.333 114.755 C 101.303 115.733,99.675 115.949,98.599 115.250 C 97.677 114.652,77.274 94.822,77.030 94.287 C 76.533 93.195,76.783 91.813,77.650 90.860 C 78.020 90.454,78.023 89.797,77.656 89.802 C 77.570 89.803,75.767 91.596,73.650 93.786 M63.232 109.945 C 55.995 114.226,51.490 122.889,52.589 130.409 C 54.333 142.337,69.541 150.140,79.986 144.467 C 88.095 140.062,92.001 130.340,88.869 122.358 L 88.333 120.990 84.936 118.583 C 82.449 116.821,81.495 116.246,81.378 116.435 C 81.233 116.670,82.843 118.365,83.235 118.391 C 84.128 118.450,87.309 123.568,87.898 125.892 C 89.589 132.565,84.599 140.631,77.600 142.538 C 69.622 144.712,58.247 138.314,55.485 130.100 C 52.361 120.806,60.868 110.362,70.000 112.282 C 71.225 112.539,71.907 112.395,71.442 111.976 C 71.205 111.762,65.027 109.200,64.750 109.200 C 64.607 109.200,63.924 109.535,63.232 109.945 M339.992 113.387 C 335.381 116.384,313.007 128.080,311.865 128.090 C 310.672 128.101,309.981 127.696,309.216 126.534 C 308.691 125.736,308.081 125.523,308.258 126.200 C 308.434 126.873,313.017 135.400,313.202 135.400 C 313.611 135.400,313.610 134.910,313.201 133.959 C 312.678 132.741,312.883 131.576,313.771 130.731 C 314.230 130.294,336.403 118.314,336.503 118.449 C 336.523 118.477,333.617 127.068,330.045 137.540 C 326.473 148.013,323.603 156.720,323.669 156.890 C 323.763 157.136,324.187 156.938,325.750 155.913 C 328.919 153.837,353.211 141.000,353.972 141.000 C 355.029 141.000,355.947 141.513,356.634 142.488 C 357.243 143.352,357.800 143.676,357.800 143.167 C 357.800 142.715,352.962 133.800,352.716 133.800 C 352.251 133.800,352.216 134.048,352.580 134.775 C 353.341 136.294,353.158 137.679,352.072 138.642 C 351.775 138.905,334.060 148.427,330.159 150.420 L 329.418 150.799 329.720 149.949 C 331.526 144.869,342.400 112.798,342.400 112.552 C 342.400 111.922,342.069 112.037,339.992 113.387 M256.986 132.385 C 253.318 132.540,250.600 134.001,250.600 135.816 C 250.600 136.393,251.150 136.278,251.485 135.630 C 252.355 133.946,253.515 133.479,257.278 133.298 C 259.924 133.171,260.049 133.182,259.903 133.532 C 259.819 133.735,259.731 134.170,259.708 134.500 C 259.660 135.205,257.923 139.157,257.521 139.479 C 257.030 139.872,256.923 141.149,257.370 141.290 C 257.732 141.405,258.740 143.400,258.435 143.400 C 258.357 143.400,250.793 141.690,241.626 139.600 C 232.460 137.510,224.822 135.800,224.654 135.800 C 224.486 135.800,225.714 136.483,227.382 137.317 C 229.051 138.152,231.680 139.678,233.224 140.709 L 236.033 142.584 253.367 145.706 C 262.900 147.423,272.860 149.217,275.500 149.693 C 290.651 152.422,289.150 152.266,288.869 151.080 L 288.694 150.338 274.155 147.023 L 259.616 143.707 259.033 142.404 C 258.203 140.550,258.285 139.599,259.521 136.772 C 260.152 135.329,260.626 134.504,260.857 134.443 C 261.055 134.391,261.344 134.102,261.500 133.801 L 261.783 133.252 264.942 133.122 C 269.204 132.947,270.438 133.361,271.211 135.226 C 271.342 135.542,271.505 135.799,271.574 135.797 C 272.992 135.762,271.026 132.904,269.244 132.409 C 268.469 132.194,261.792 132.181,256.986 132.385 M201.500 133.332 C 190.939 133.970,178.595 137.955,168.400 144.019 L 166.700 145.030 167.800 144.912 C 168.405 144.848,170.160 144.641,171.700 144.452 C 184.419 142.895,202.332 145.391,215.011 150.488 C 215.211 150.568,215.949 150.140,217.081 149.286 C 222.501 145.198,227.875 142.477,231.332 142.071 C 232.744 141.904,232.718 141.859,230.450 140.557 C 221.074 135.176,211.315 132.740,201.500 133.332 M43.021 143.850 C 42.014 146.521,39.400 153.854,39.400 154.004 C 39.400 154.481,40.047 154.137,40.303 153.524 C 40.990 151.879,42.721 151.167,44.541 151.780 C 47.950 152.930,71.164 161.463,71.527 161.700 C 72.651 162.434,73.137 164.475,72.515 165.850 C 72.394 166.119,72.449 166.200,72.754 166.200 C 73.218 166.200,73.069 166.538,75.291 160.423 C 76.225 157.850,76.942 155.667,76.883 155.573 C 76.673 155.232,76.241 155.409,76.122 155.885 C 75.773 157.276,73.846 158.416,72.454 158.055 C 68.493 157.028,45.038 148.119,44.366 147.386 C 43.549 146.494,43.254 145.410,43.589 144.528 C 43.705 144.223,43.800 143.845,43.800 143.687 C 43.800 143.231,43.207 143.355,43.021 143.850 M225.400 146.096 C 222.457 146.596,220.109 147.501,217.794 149.028 C 215.175 150.756,215.309 150.761,220.360 149.120 C 228.735 146.399,230.126 146.453,256.444 150.507 C 264.958 151.819,284.674 153.807,284.170 153.304 C 283.941 153.075,239.646 146.389,235.829 146.007 C 233.060 145.730,227.262 145.780,225.400 146.096 M170.100 146.136 C 169.550 146.171,168.020 146.291,166.700 146.403 L 164.300 146.605 162.300 147.950 C 150.035 156.201,137.509 168.289,129.521 179.584 C 127.977 181.767,127.865 181.542,130.940 182.429 L 133.187 183.077 132.144 183.832 C 130.896 184.735,130.813 184.740,128.430 184.087 C 127.401 183.805,126.537 183.603,126.511 183.637 C 126.485 183.672,125.791 184.555,124.970 185.600 C 117.128 195.577,109.889 209.437,107.945 218.198 C 107.377 220.755,107.328 226.578,107.856 228.666 C 109.345 234.550,112.929 238.689,120.702 243.500 C 125.322 246.359,126.644 248.196,125.905 250.731 C 124.900 254.178,124.911 254.114,125.166 254.966 C 125.301 255.415,125.633 256.046,125.904 256.368 L 126.398 256.955 124.149 257.941 C 122.912 258.483,120.258 259.639,118.250 260.509 C 116.243 261.380,114.604 262.184,114.609 262.296 C 114.614 262.408,114.726 262.744,114.859 263.042 L 115.100 263.585 121.500 260.789 L 127.900 257.994 129.736 258.510 C 137.301 260.637,158.897 259.148,175.000 255.390 C 185.054 253.043,185.002 253.069,185.388 250.298 C 185.764 247.592,185.892 247.314,187.526 245.641 C 190.430 242.668,192.010 240.312,196.604 232.100 C 202.244 222.019,202.375 221.864,205.750 221.275 C 209.622 220.599,217.075 218.186,248.300 207.502 C 259.630 203.625,269.800 200.160,270.900 199.802 C 272.000 199.443,272.990 199.066,273.100 198.963 C 273.228 198.843,273.193 198.814,273.000 198.881 C 272.835 198.938,270.090 199.759,266.900 200.706 C 263.710 201.652,254.710 204.394,246.900 206.798 C 217.035 215.991,209.150 218.258,204.753 218.916 C 200.927 219.489,201.385 219.016,195.305 228.700 C 188.140 240.112,186.684 242.252,184.484 244.604 C 183.182 245.996,183.017 246.266,182.815 247.325 C 182.542 248.757,182.252 249.822,182.051 250.131 C 181.679 250.700,169.526 253.827,163.163 254.991 C 148.886 257.602,130.676 257.388,128.315 254.581 C 127.539 253.660,127.493 253.134,128.001 251.053 C 128.866 247.510,127.623 245.236,123.363 242.573 C 119.445 240.123,118.275 239.285,116.779 237.857 C 109.485 230.893,108.191 221.603,112.708 208.619 C 113.635 205.954,114.513 203.882,114.325 204.800 C 112.517 213.649,115.547 216.900,125.600 216.900 C 138.393 216.900,152.503 209.999,169.500 195.430 C 174.272 191.340,183.637 182.369,183.390 182.124 C 183.341 182.075,181.860 182.299,180.100 182.622 C 171.971 184.115,163.587 185.383,158.474 185.892 L 157.248 186.014 156.553 185.047 L 155.857 184.079 159.779 183.734 C 167.881 183.020,184.614 180.410,185.857 179.665 C 186.009 179.574,188.735 176.710,191.915 173.300 C 201.042 163.513,206.264 158.397,211.239 154.368 C 212.318 153.495,213.200 152.714,213.200 152.633 C 213.200 152.231,206.235 149.744,202.270 148.731 C 193.253 146.426,181.007 145.438,170.100 146.136 M184.800 147.604 C 193.176 148.117,200.485 149.505,207.275 151.872 C 210.596 153.030,210.532 152.865,208.380 154.695 C 203.692 158.683,199.124 163.249,189.234 173.834 C 184.370 179.040,185.653 178.316,179.200 179.496 C 171.164 180.966,158.589 182.589,155.162 182.599 C 154.836 182.600,149.141 174.752,149.136 174.294 C 149.134 174.180,149.877 172.978,150.785 171.622 C 151.963 169.863,152.375 169.095,152.222 168.942 C 152.103 168.823,151.973 168.766,151.931 168.813 C 150.760 170.150,143.205 181.239,143.043 181.859 C 142.785 182.842,143.719 181.883,145.602 179.231 L 147.638 176.362 149.519 179.495 C 150.554 181.219,151.400 182.680,151.400 182.743 C 151.400 182.905,140.463 182.638,139.520 182.453 L 138.740 182.300 139.920 181.313 C 140.569 180.770,141.273 180.186,141.485 180.013 C 141.762 179.788,141.687 180.023,141.220 180.851 C 140.660 181.842,140.615 182.018,140.894 182.125 C 141.072 182.194,141.242 182.216,141.271 182.175 C 142.564 180.393,148.800 169.857,148.800 169.456 C 148.800 168.801,148.287 169.425,146.485 172.267 L 144.542 175.335 139.871 178.517 C 134.618 182.097,135.034 181.952,132.177 181.182 L 130.604 180.757 131.405 179.616 C 138.364 169.695,150.957 157.630,163.000 149.346 L 164.900 148.039 168.300 147.814 C 173.434 147.474,173.421 147.475,177.600 147.437 C 179.745 147.418,182.985 147.493,184.800 147.604 M232.600 151.380 C 232.600 151.810,233.185 161.857,233.900 173.708 C 235.598 201.845,235.613 201.416,232.706 206.017 C 231.821 207.418,231.557 207.418,237.606 206.010 C 244.874 204.318,245.438 203.872,245.717 199.600 C 245.813 198.125,243.544 151.878,243.367 151.701 C 243.289 151.623,233.542 150.603,232.850 150.601 C 232.693 150.600,232.600 150.889,232.600 151.380 M238.977 153.601 C 240.120 153.704,241.079 153.813,241.109 153.844 C 241.207 153.945,242.473 179.193,242.385 179.282 C 242.239 179.428,236.581 179.847,236.455 179.721 C 236.349 179.615,235.025 156.328,235.007 154.250 L 235.000 153.400 235.950 153.407 C 236.472 153.410,237.835 153.498,238.977 153.601 M219.791 155.532 C 216.872 157.897,213.740 160.730,211.038 163.451 L 208.576 165.930 211.238 166.167 C 214.246 166.435,217.298 167.074,220.038 168.009 C 221.619 168.549,223.335 169.290,222.149 168.921 C 219.682 168.153,217.165 167.900,212.000 167.900 L 206.700 167.900 205.826 168.849 C 202.134 172.855,193.400 184.339,193.400 185.188 C 193.400 186.113,194.042 186.134,197.011 185.306 C 201.789 183.973,206.284 183.210,209.400 183.203 L 211.300 183.199 212.527 181.647 C 215.656 177.687,222.109 170.844,225.753 167.622 C 229.153 164.615,229.180 160.470,225.827 156.253 C 223.746 153.634,222.341 153.467,219.791 155.532 M346.652 157.011 C 333.094 158.347,325.880 170.010,330.681 182.829 C 331.999 186.349,335.022 190.112,337.879 191.791 C 339.277 192.613,338.859 192.632,344.138 191.505 C 349.338 190.396,349.584 190.446,350.189 192.742 C 350.395 193.524,351.002 193.814,350.999 193.129 C 350.997 192.812,349.010 183.543,348.925 183.459 C 348.569 183.102,348.267 183.708,348.433 184.446 C 348.933 186.673,348.451 187.009,343.178 188.109 C 340.825 188.600,338.703 189.046,338.461 189.102 C 337.890 189.232,335.976 187.659,334.717 186.022 C 329.938 179.811,329.907 172.070,334.641 166.903 C 340.400 160.618,352.041 158.892,358.734 163.331 C 366.845 168.710,366.983 181.927,358.971 186.015 C 358.335 186.339,358.043 187.000,358.535 187.000 C 359.386 187.000,365.411 184.454,365.587 184.020 C 366.991 180.563,367.150 175.183,365.986 170.565 C 363.689 161.451,356.035 156.086,346.652 157.011 M252.200 161.764 C 252.200 164.582,252.617 180.084,252.695 180.162 C 252.766 180.232,263.464 179.261,264.560 179.084 L 265.221 178.978 265.083 169.839 C 265.008 164.813,264.910 160.659,264.866 160.610 C 264.789 160.523,254.456 159.828,252.950 159.809 L 252.200 159.800 252.200 161.764 M265.942 166.127 C 265.976 169.192,266.057 173.335,266.123 175.334 L 266.242 178.968 266.871 178.885 C 267.217 178.839,269.030 178.659,270.899 178.485 C 272.769 178.311,274.309 178.153,274.321 178.134 C 274.425 177.981,274.067 161.449,273.956 161.279 C 273.871 161.148,272.698 161.004,271.056 160.923 C 269.540 160.848,267.756 160.734,267.091 160.670 L 265.882 160.553 265.942 166.127 M35.954 163.637 C 35.872 166.230,35.690 167.380,34.033 175.812 C 32.282 184.716,31.822 186.586,30.801 188.956 C 30.249 190.236,29.896 190.016,33.650 190.730 C 36.583 191.288,36.800 191.305,36.800 190.972 C 36.800 190.727,36.558 190.550,36.026 190.407 C 34.617 190.028,33.598 188.873,33.602 187.660 C 33.604 186.992,35.341 177.993,35.498 177.835 C 35.717 177.616,65.071 183.421,66.000 183.867 C 67.258 184.472,67.852 185.534,67.724 186.950 C 67.642 187.859,67.677 188.000,67.985 188.000 C 68.304 188.000,70.400 178.557,70.400 177.119 C 70.400 176.474,69.812 176.811,69.607 177.574 C 69.204 179.072,67.990 180.008,66.470 179.992 C 65.269 179.980,36.331 174.293,36.251 174.054 C 36.092 173.577,38.005 164.489,38.367 164.000 C 39.147 162.946,39.995 162.552,41.250 162.662 C 42.250 162.749,42.400 162.716,42.400 162.412 C 42.400 162.119,41.914 161.970,39.450 161.503 C 37.828 161.196,36.398 160.906,36.273 160.859 C 36.112 160.799,36.018 161.614,35.954 163.637 M275.147 169.528 C 275.205 174.133,275.282 177.934,275.317 177.975 C 275.420 178.092,281.346 177.557,281.585 177.409 C 281.736 177.316,281.761 174.946,281.668 169.456 L 281.536 161.636 280.018 161.521 C 279.183 161.458,277.722 161.350,276.771 161.281 L 275.041 161.156 275.147 169.528 M282.533 161.733 C 282.457 161.808,282.756 177.223,282.836 177.302 C 282.911 177.378,286.679 177.020,286.713 176.933 C 286.846 176.606,286.446 162.167,286.300 162.028 C 286.142 161.877,282.664 161.604,282.533 161.733 M287.468 164.550 C 287.540 165.953,287.599 169.283,287.599 171.950 L 287.600 176.800 288.450 176.798 C 288.918 176.797,289.637 176.740,290.050 176.672 L 290.800 176.548 290.800 169.402 L 290.800 162.256 289.750 162.130 C 289.173 162.060,288.394 162.003,288.019 162.002 L 287.338 162.000 287.468 164.550 M135.690 183.581 C 134.179 185.024,133.153 185.481,132.442 185.030 C 131.995 184.747,134.153 183.427,135.090 183.413 C 135.569 183.405,135.805 183.471,135.690 183.581 M143.400 184.221 C 145.435 184.343,148.284 184.386,149.730 184.317 L 152.361 184.192 152.968 185.179 C 153.471 185.997,153.523 186.187,153.271 186.283 C 152.193 186.697,140.444 186.317,136.450 185.739 L 134.801 185.500 135.850 184.636 L 136.900 183.772 138.300 183.885 C 139.070 183.948,141.365 184.099,143.400 184.221 M155.552 185.204 L 156.203 186.200 155.431 186.200 C 154.722 186.200,154.610 186.120,154.038 185.200 L 153.417 184.200 154.158 184.204 C 154.826 184.207,154.965 184.307,155.552 185.204 M130.000 185.979 C 130.000 186.077,129.865 186.209,129.700 186.272 C 129.133 186.490,129.402 186.737,130.490 186.998 C 131.450 187.228,131.640 187.220,132.080 186.932 C 132.778 186.474,132.908 186.845,132.226 187.349 L 131.667 187.762 130.184 187.361 C 128.325 186.858,128.220 186.755,129.038 186.231 C 129.761 185.767,130.000 185.705,130.000 185.979 M155.100 187.400 C 155.283 187.696,157.345 187.652,157.471 187.350 C 157.544 187.174,157.670 187.218,157.897 187.500 C 158.203 187.879,158.191 187.906,157.660 188.026 C 155.981 188.405,154.639 188.108,154.606 187.350 C 154.597 187.130,154.956 187.167,155.100 187.400 M221.085 188.808 C 217.312 189.472,210.633 192.946,208.216 195.501 C 205.294 198.591,208.632 199.104,214.759 196.507 C 222.702 193.141,227.136 187.743,221.085 188.808 M194.100 197.376 C 180.268 200.993,164.321 213.376,172.988 213.769 C 182.150 214.185,204.497 200.831,200.579 197.281 C 199.850 196.620,196.821 196.664,194.100 197.376 M271.831 200.809 C 269.879 201.682,268.892 202.878,268.198 205.208 C 267.434 207.773,266.369 208.165,263.650 206.879 C 261.838 206.023,260.596 205.909,259.150 206.467 C 257.815 206.982,257.961 207.114,259.776 207.031 C 263.047 206.883,264.893 208.807,264.466 211.920 L 264.337 212.866 265.418 212.259 C 266.013 211.925,267.130 211.312,267.900 210.896 C 268.670 210.480,269.590 209.967,269.944 209.757 L 270.589 209.374 270.104 208.637 C 268.463 206.140,269.593 202.479,272.510 200.847 C 273.222 200.448,272.701 200.419,271.831 200.809 M273.700 200.845 C 269.790 202.239,268.456 207.139,271.555 208.726 L 272.386 209.151 267.681 211.662 C 265.093 213.043,263.008 214.111,263.048 214.036 C 265.017 210.342,263.588 207.193,260.063 207.459 C 254.517 207.877,251.707 215.889,256.729 216.962 L 257.500 217.127 256.800 217.493 C 256.415 217.694,253.112 219.461,249.461 221.420 C 245.809 223.378,242.459 225.166,242.016 225.392 L 241.210 225.803 241.696 225.087 C 245.359 219.689,241.974 213.668,235.900 214.778 C 227.058 216.394,223.925 228.316,231.878 230.082 L 232.860 230.300 230.781 231.423 L 228.703 232.546 228.236 231.923 C 223.906 226.153,226.103 217.832,232.984 213.937 C 234.367 213.154,234.041 213.037,232.302 213.692 C 228.202 215.235,225.031 218.807,223.914 223.140 C 222.361 229.165,219.949 230.008,213.372 226.828 C 208.632 224.536,206.850 224.446,203.100 226.309 L 201.700 227.005 202.700 226.894 C 212.294 225.833,217.210 230.597,215.274 239.080 C 215.169 239.541,215.199 239.627,215.421 239.500 C 215.608 239.394,215.634 239.408,215.500 239.544 C 215.390 239.655,214.132 240.361,212.705 241.112 L 210.111 242.477 210.930 241.489 C 218.935 231.820,207.595 223.099,198.700 232.084 C 192.660 238.184,195.252 247.316,202.675 246.090 C 203.129 246.016,203.455 245.998,203.400 246.052 C 203.345 246.105,195.515 250.314,186.000 255.404 C 176.485 260.494,168.671 264.682,168.635 264.711 C 168.520 264.803,169.205 266.000,169.372 266.000 C 169.462 266.000,183.792 258.365,201.217 249.032 C 218.643 239.700,243.880 226.189,257.300 219.008 C 284.799 204.294,282.137 205.814,281.805 205.011 C 281.485 204.240,281.567 204.229,279.523 205.316 C 278.575 205.820,277.800 206.191,277.800 206.141 C 277.800 206.090,277.944 205.703,278.121 205.280 C 279.345 202.351,276.758 199.756,273.700 200.845 M264.235 204.316 C 262.123 205.812,262.020 206.039,263.777 205.325 C 264.739 204.934,265.000 204.889,265.000 205.114 C 265.000 205.534,265.226 205.470,266.161 204.783 C 267.077 204.109,267.211 203.906,266.613 204.096 C 266.296 204.196,266.215 204.109,266.163 203.607 L 266.100 202.995 264.235 204.316 M205.778 206.464 C 200.955 208.312,197.711 211.750,201.178 211.340 C 204.162 210.986,210.008 207.535,209.766 206.269 C 209.639 205.599,207.802 205.689,205.778 206.464 M57.197 213.250 C 57.151 219.157,50.969 225.632,44.550 226.497 C 42.933 226.714,43.161 227.501,44.888 227.662 C 50.427 228.180,56.124 233.815,57.035 239.679 C 57.365 241.799,58.072 241.950,58.260 239.940 C 58.797 234.185,65.548 227.600,70.910 227.600 C 72.365 227.600,72.234 226.696,70.750 226.496 C 64.373 225.639,58.200 219.241,58.200 213.490 C 58.200 212.887,58.137 212.800,57.700 212.800 C 57.316 212.800,57.199 212.904,57.197 213.250 M343.708 213.650 C 342.726 220.233,337.698 225.504,331.526 226.422 C 329.674 226.697,329.134 227.600,330.821 227.600 C 336.512 227.600,342.863 233.839,343.700 240.250 C 343.877 241.600,344.800 241.708,344.800 240.379 C 344.800 234.705,351.905 227.600,357.579 227.600 C 359.246 227.600,358.730 226.698,356.908 226.427 C 350.991 225.547,345.257 219.711,344.846 214.150 C 344.719 212.432,343.941 212.090,343.708 213.650 M59.429 220.204 C 61.081 222.783,63.651 225.003,66.519 226.328 L 68.074 227.047 66.887 227.547 C 63.097 229.143,59.639 232.635,58.157 236.360 L 57.656 237.620 57.207 236.419 C 55.860 232.818,52.079 229.044,48.264 227.494 C 47.333 227.115,47.184 226.997,47.503 226.887 C 51.849 225.392,56.411 220.866,57.469 217.000 C 57.591 216.551,57.663 216.634,58.164 217.800 C 58.471 218.515,59.040 219.597,59.429 220.204 M345.832 219.960 C 347.087 222.102,349.995 224.754,352.442 225.991 L 354.584 227.073 353.325 227.604 C 349.698 229.134,346.107 232.754,344.749 236.250 C 344.208 237.641,344.182 237.646,343.753 236.450 C 342.481 232.900,338.637 229.027,334.865 227.494 C 333.776 227.051,333.738 227.014,334.205 226.836 C 336.645 225.907,338.431 224.719,340.321 222.767 C 341.666 221.379,342.989 219.560,343.386 218.555 C 343.484 218.305,343.716 217.747,343.899 217.316 L 344.234 216.532 344.699 217.677 C 344.955 218.306,345.464 219.334,345.832 219.960 M215.831 221.131 C 213.497 222.739,211.625 224.091,211.669 224.136 C 211.713 224.180,213.120 223.673,214.796 223.008 C 216.471 222.344,217.869 221.800,217.902 221.800 C 217.935 221.800,217.866 222.115,217.748 222.500 C 217.417 223.578,217.617 223.535,219.775 222.067 C 222.035 220.528,222.282 220.214,220.750 220.824 C 219.100 221.481,219.052 221.494,219.429 221.177 C 219.708 220.941,220.312 218.446,220.133 218.266 C 220.100 218.233,218.164 219.522,215.831 221.131 M218.600 237.895 C 218.600 237.947,218.330 238.129,218.000 238.300 C 217.248 238.689,217.202 238.520,217.950 238.114 C 218.579 237.773,218.600 237.766,218.600 237.895 M76.261 254.210 C 74.364 254.792,73.555 256.906,74.859 257.876 C 75.588 258.418,76.286 258.072,76.973 256.828 C 77.690 255.529,78.582 255.171,79.650 255.756 C 80.556 256.252,80.699 256.227,80.502 255.607 C 80.163 254.537,77.767 253.748,76.261 254.210 M77.628 258.632 C 76.146 259.366,75.626 260.670,76.415 261.673 C 77.204 262.676,78.220 262.329,79.007 260.786 C 79.642 259.541,80.729 259.237,81.805 260.004 C 82.495 260.495,82.752 260.218,82.278 259.494 C 81.456 258.240,79.247 257.831,77.628 258.632 M322.932 262.950 C 322.740 263.582,321.457 266.240,320.083 268.855 C 317.642 273.499,317.174 274.791,318.482 273.278 C 319.478 272.125,319.570 272.156,327.100 276.161 C 335.425 280.588,335.355 280.529,334.511 282.450 C 334.403 282.696,334.446 282.800,334.657 282.800 C 334.941 282.800,341.000 271.714,341.000 271.195 C 341.000 271.023,339.455 269.142,337.973 267.510 C 337.500 266.990,337.433 267.767,337.896 268.395 C 339.419 270.459,339.342 271.719,337.469 275.365 C 336.716 276.831,336.043 278.068,335.973 278.113 C 335.834 278.203,329.000 274.622,329.000 274.459 C 329.000 274.095,331.703 269.359,332.003 269.199 C 332.250 269.066,332.555 269.069,332.919 269.207 C 333.866 269.567,333.897 269.095,332.963 268.551 C 331.045 267.435,329.620 266.807,329.489 267.018 C 329.416 267.136,329.546 267.364,329.777 267.526 C 330.745 268.204,330.713 268.437,329.274 271.207 C 328.533 272.633,327.830 273.797,327.713 273.794 C 327.278 273.781,320.902 270.206,320.952 270.002 C 321.078 269.481,324.080 264.073,324.373 263.837 C 324.698 263.575,325.581 263.601,326.250 263.891 C 326.495 263.997,326.600 263.953,326.600 263.744 C 326.600 263.512,323.747 261.800,323.361 261.800 C 323.318 261.800,323.125 262.318,322.932 262.950 M341.235 264.063 C 340.300 265.058,340.938 266.680,342.264 266.680 C 343.249 266.680,343.800 266.140,343.800 265.177 C 343.800 263.744,342.191 263.045,341.235 264.063 M75.261 267.397 C 65.890 269.386,62.071 279.453,67.927 286.731 C 76.648 297.572,93.994 286.555,87.813 274.100 C 85.298 269.032,80.253 266.338,75.261 267.397 M80.408 269.602 C 87.560 270.958,89.802 279.454,84.415 284.785 C 77.784 291.346,68.455 289.673,66.784 281.622 C 65.519 275.529,73.682 268.326,80.408 269.602 M314.000 278.491 C 314.000 278.651,315.800 282.388,318.000 286.795 C 321.419 293.644,321.935 294.793,321.550 294.704 C 319.807 294.304,304.069 291.807,303.841 291.895 C 303.650 291.968,305.737 294.214,310.178 298.710 C 317.499 306.124,317.366 305.936,316.398 307.504 C 316.079 308.020,316.051 308.177,316.266 308.259 C 316.623 308.396,320.250 303.577,319.990 303.313 C 319.876 303.197,319.628 303.292,319.340 303.563 C 319.084 303.803,318.723 304.000,318.538 304.000 C 318.235 304.000,308.724 295.210,308.869 295.064 C 308.903 295.031,310.183 295.223,311.715 295.491 C 313.247 295.759,316.705 296.349,319.400 296.802 C 322.095 297.255,324.503 297.674,324.750 297.734 C 325.410 297.894,325.330 297.339,324.555 296.373 C 324.002 295.686,317.576 283.001,317.701 282.844 C 317.772 282.754,328.647 288.981,329.041 289.338 C 329.479 289.734,329.497 290.172,329.098 290.742 C 328.831 291.123,329.019 291.647,329.316 291.351 C 330.199 290.467,333.359 285.879,333.197 285.717 C 333.052 285.572,332.852 285.670,332.544 286.035 C 332.049 286.622,331.401 287.000,330.887 287.000 C 330.700 287.000,326.924 285.020,322.496 282.600 C 314.315 278.130,314.000 277.977,314.000 278.491 M91.303 287.344 C 89.705 289.212,78.632 299.000,78.117 299.000 C 77.849 299.000,77.348 298.762,77.003 298.472 C 76.573 298.110,76.311 298.009,76.170 298.150 C 75.991 298.329,79.711 302.749,80.218 302.961 C 80.572 303.108,80.559 302.602,80.198 302.143 C 79.814 301.654,79.703 301.250,79.768 300.570 C 79.786 300.388,82.095 298.159,84.900 295.616 L 90.000 290.992 89.994 292.246 C 89.990 292.936,89.862 298.090,89.709 303.700 C 89.556 309.310,89.504 313.976,89.594 314.069 C 89.684 314.161,90.149 313.811,90.629 313.289 C 91.781 312.035,102.771 302.135,103.358 301.822 C 103.898 301.534,104.526 301.687,105.153 302.260 C 105.434 302.518,105.676 302.604,105.792 302.487 C 106.014 302.264,102.096 297.800,101.677 297.800 C 101.306 297.800,101.326 297.916,101.815 298.577 C 102.745 299.836,102.600 300.035,97.100 305.018 C 94.350 307.510,92.084 309.537,92.065 309.522 C 92.045 309.508,92.149 304.367,92.296 298.098 C 92.604 284.911,92.680 285.735,91.303 287.344 M297.104 299.196 C 295.141 301.163,294.569 301.849,294.744 302.024 C 294.920 302.200,295.128 302.128,295.603 301.728 C 297.013 300.541,297.038 300.557,303.156 306.650 C 309.601 313.068,309.905 313.519,308.589 314.710 C 308.143 315.113,308.075 315.600,308.463 315.600 C 308.939 315.600,313.887 310.407,313.643 310.163 C 313.485 310.005,313.251 310.090,312.797 310.472 C 311.364 311.678,311.374 311.685,304.945 305.242 C 298.613 298.896,298.625 298.914,299.700 297.636 C 300.248 296.986,300.340 296.600,299.947 296.600 C 299.808 296.600,298.528 297.768,297.104 299.196 M292.816 303.404 C 291.817 304.589,283.040 311.769,281.420 312.727 C 280.804 313.092,280.171 313.466,280.012 313.559 C 279.734 313.722,281.794 316.600,282.189 316.600 C 282.546 316.600,282.537 316.316,282.161 315.679 C 281.823 315.105,281.793 314.900,281.982 314.444 C 282.280 313.725,286.765 310.085,287.028 310.348 C 287.135 310.455,289.510 313.368,292.306 316.821 C 297.879 323.703,297.911 323.762,296.895 324.970 C 295.790 326.283,296.920 325.752,299.241 323.867 C 300.574 322.785,301.762 321.836,301.880 321.758 C 302.034 321.658,302.029 321.549,301.865 321.385 C 301.690 321.210,301.522 321.232,301.172 321.477 C 300.692 321.814,300.063 321.888,299.507 321.675 C 299.181 321.550,289.052 309.199,288.902 308.743 C 288.829 308.522,292.030 305.796,293.354 304.951 C 294.075 304.490,294.259 304.508,294.964 305.100 C 296.374 306.287,296.317 305.556,294.860 303.786 C 293.508 302.142,293.830 302.202,292.816 303.404 M110.957 308.345 C 109.797 309.954,109.680 310.773,110.760 309.739 C 111.690 308.847,112.208 309.000,114.884 310.961 C 116.195 311.921,117.252 312.796,117.233 312.904 C 117.215 313.012,115.062 316.044,112.450 319.642 C 107.365 326.646,107.127 326.894,105.925 326.425 C 104.117 325.721,104.621 326.362,107.528 328.468 C 109.571 329.948,110.301 330.379,110.472 330.205 C 110.643 330.033,110.612 329.926,110.350 329.778 C 109.824 329.481,109.357 328.450,109.518 327.940 C 109.721 327.299,119.221 314.290,119.441 314.354 C 119.749 314.445,123.254 317.024,123.950 317.673 C 124.655 318.330,124.766 318.904,124.306 319.512 C 123.944 319.991,123.917 320.401,124.250 320.397 C 124.484 320.394,126.738 317.433,126.575 317.342 C 126.534 317.319,125.870 316.978,125.100 316.584 C 123.230 315.628,115.037 309.667,113.390 308.065 L 112.079 306.789 110.957 308.345 M272.703 318.802 C 269.652 320.523,269.231 320.910,270.640 320.699 C 272.073 320.484,272.066 320.454,271.870 326.088 L 271.700 330.986 267.600 328.441 C 263.192 325.704,262.854 325.356,263.791 324.509 C 264.186 324.150,264.370 323.498,264.036 323.633 C 262.934 324.082,257.400 327.363,257.400 327.568 C 257.400 327.753,257.514 327.794,257.750 327.694 C 259.761 326.838,260.035 326.921,266.096 330.217 L 271.029 332.900 272.465 335.492 C 274.366 338.925,274.467 339.517,273.285 340.291 C 272.774 340.626,272.640 341.000,273.031 341.000 C 273.240 341.000,276.691 339.155,278.365 338.149 C 279.162 337.669,278.949 337.303,278.066 337.636 C 276.859 338.092,276.383 337.669,274.704 334.649 C 272.952 331.497,273.046 332.294,273.594 325.227 C 274.025 319.657,274.274 318.680,275.430 318.023 C 276.006 317.695,276.206 317.189,275.750 317.213 C 275.613 317.220,274.242 317.935,272.703 318.802 M126.898 318.404 C 126.771 318.609,127.310 319.179,127.645 319.194 C 127.916 319.206,128.437 320.449,128.354 320.885 C 128.223 321.569,120.223 334.774,119.803 334.998 C 119.269 335.284,118.594 335.246,117.916 334.893 C 117.420 334.634,116.665 334.778,117.013 335.065 C 117.376 335.362,123.264 338.800,123.412 338.800 C 123.772 338.800,123.596 338.436,122.900 337.740 C 121.777 336.617,121.784 336.599,126.298 329.073 C 130.865 321.457,130.831 321.496,132.425 322.133 C 134.205 322.845,133.498 322.043,131.042 320.563 C 127.050 318.158,127.050 318.158,126.898 318.404 M133.876 332.521 C 128.608 341.274,128.593 341.293,127.064 340.788 C 126.206 340.505,125.610 340.859,126.417 341.172 C 126.683 341.275,127.972 341.815,129.282 342.372 C 131.779 343.434,132.463 343.516,131.396 342.625 C 130.981 342.279,130.784 341.954,130.830 341.691 C 130.911 341.225,137.077 330.168,137.145 330.367 C 137.186 330.487,138.400 346.218,138.400 346.627 C 138.400 347.063,138.974 346.714,139.764 345.796 C 140.535 344.901,151.001 335.935,151.128 336.061 C 151.156 336.089,150.384 338.938,149.412 342.393 C 147.405 349.525,147.445 349.451,145.850 348.851 C 145.713 348.799,145.600 348.884,145.600 349.039 C 145.600 349.435,151.848 352.046,152.042 351.732 C 152.130 351.590,151.913 351.361,151.477 351.138 C 149.920 350.339,149.903 350.510,152.528 340.490 C 154.003 334.861,154.792 331.512,154.672 331.392 C 154.552 331.272,151.959 333.344,147.629 337.022 C 143.860 340.223,140.724 342.791,140.661 342.728 C 140.599 342.665,140.247 338.808,139.880 334.157 C 139.087 324.104,139.155 324.749,138.876 324.657 C 138.752 324.617,136.502 328.155,133.876 332.521 M249.600 330.265 C 243.238 332.479,240.464 333.803,242.884 333.471 C 244.277 333.280,244.386 333.472,247.570 341.766 C 250.730 349.998,250.732 350.011,249.372 350.715 C 248.813 351.003,248.599 351.400,249.002 351.400 C 249.546 351.400,255.200 349.075,255.200 348.851 C 255.200 348.664,254.981 348.630,254.388 348.725 C 253.427 348.879,252.745 348.577,252.416 347.854 C 251.938 346.806,246.581 332.753,246.639 332.701 C 247.050 332.334,250.783 331.200,251.578 331.200 C 253.963 331.200,255.593 332.973,255.598 335.570 C 255.602 337.579,254.932 338.362,252.242 339.493 C 250.401 340.268,250.202 340.580,251.556 340.570 C 252.738 340.561,253.840 341.081,256.700 343.000 C 260.707 345.688,262.569 346.150,265.388 345.155 C 267.127 344.540,267.149 344.265,265.455 344.285 C 263.855 344.303,262.925 343.913,259.000 341.577 C 257.625 340.759,256.255 339.982,255.956 339.852 L 255.412 339.614 256.388 338.612 C 258.610 336.331,258.528 332.739,256.208 330.754 C 254.610 329.385,252.563 329.234,249.600 330.265 M237.400 334.019 C 236.685 334.324,233.873 335.131,231.150 335.811 C 227.895 336.625,226.200 337.136,226.200 337.305 C 226.200 337.486,226.421 337.533,226.950 337.462 C 228.513 337.253,228.517 337.262,230.698 345.994 C 232.875 354.706,232.878 354.737,231.466 355.327 C 230.807 355.602,230.566 355.995,231.050 356.005 C 231.188 356.008,234.102 355.315,237.526 354.464 L 243.751 352.919 243.993 350.809 C 244.126 349.649,244.282 348.498,244.339 348.250 C 244.554 347.321,243.885 347.793,243.630 348.750 C 243.245 350.196,242.490 351.331,241.545 351.884 C 240.761 352.343,235.230 353.897,235.044 353.711 C 234.998 353.665,234.534 351.928,234.013 349.850 L 233.064 346.073 235.937 345.362 C 239.046 344.592,239.800 344.680,239.800 345.815 C 239.800 346.166,240.395 346.398,240.404 346.050 C 240.423 345.257,239.284 341.457,239.053 341.546 C 238.867 341.617,238.819 341.830,238.903 342.212 C 238.992 342.617,238.919 342.881,238.644 343.156 C 238.191 343.609,233.058 344.947,232.814 344.677 C 232.689 344.539,231.025 338.072,230.923 337.330 C 230.896 337.130,236.594 335.615,237.549 335.567 C 238.287 335.531,238.904 335.991,239.086 336.715 C 239.153 336.982,239.347 337.200,239.517 337.200 C 239.719 337.200,239.790 337.078,239.722 336.850 C 239.665 336.658,239.466 335.870,239.281 335.100 C 238.854 333.320,238.930 333.364,237.400 334.019 M159.921 333.766 C 159.865 333.857,160.165 334.084,160.587 334.270 C 162.035 334.909,162.039 334.851,160.002 343.015 C 157.611 352.600,157.728 352.336,155.958 352.161 C 153.800 351.948,156.037 352.714,161.688 354.124 L 168.177 355.743 169.495 353.870 C 171.400 351.164,171.482 350.528,169.697 352.314 C 167.989 354.022,166.769 354.164,162.700 353.127 C 160.668 352.610,160.106 352.395,160.126 352.141 C 160.223 350.958,161.925 344.800,162.156 344.800 C 162.577 344.800,167.231 346.002,167.624 346.213 C 167.858 346.338,167.998 346.689,168.039 347.251 C 168.139 348.644,168.442 348.230,169.027 345.900 C 169.476 344.111,169.544 342.779,169.153 343.413 C 169.124 343.461,168.962 343.770,168.794 344.100 C 168.369 344.931,167.853 344.942,164.792 344.183 C 162.675 343.658,162.210 343.479,162.288 343.219 C 162.341 343.044,162.760 341.370,163.220 339.500 C 163.680 337.630,164.112 336.036,164.181 335.957 C 164.346 335.768,170.932 337.452,171.242 337.762 C 171.374 337.894,171.531 338.409,171.591 338.907 C 171.746 340.193,172.039 340.039,172.438 338.462 C 172.627 337.713,172.829 336.910,172.887 336.678 C 172.986 336.287,172.889 336.247,171.547 336.123 C 170.751 336.049,167.908 335.451,165.229 334.794 C 159.948 333.500,160.071 333.524,159.921 333.766 M201.900 335.662 C 201.491 335.818,199.373 335.879,195.250 335.856 C 190.090 335.827,189.200 335.864,189.200 336.111 C 189.200 336.297,189.407 336.400,189.779 336.400 C 190.192 336.400,190.537 336.603,190.978 337.106 L 191.598 337.812 191.494 343.856 C 191.252 357.796,191.254 357.784,189.488 358.115 C 187.342 358.518,190.750 358.798,197.823 358.799 L 202.345 358.800 203.273 356.387 C 204.537 353.095,204.477 352.229,203.151 354.650 C 201.820 357.082,200.650 357.597,196.450 357.599 L 193.600 357.600 193.600 352.770 L 193.600 347.940 195.550 348.069 C 196.623 348.140,197.972 348.198,198.550 348.199 C 199.790 348.200,200.400 348.662,200.400 349.600 C 200.400 350.000,200.500 350.200,200.700 350.200 C 200.951 350.200,201.000 349.778,201.000 347.600 C 201.000 346.000,200.923 345.000,200.800 345.000 C 200.690 345.000,200.600 345.187,200.600 345.415 C 200.600 345.644,200.337 346.094,200.015 346.415 L 199.431 347.000 196.615 347.000 L 193.800 347.000 193.800 342.050 L 193.799 337.100 197.418 337.200 L 201.036 337.300 201.518 337.861 C 201.825 338.219,202.000 338.672,202.000 339.111 C 202.000 339.590,202.091 339.800,202.300 339.800 C 202.548 339.800,202.600 339.422,202.600 337.600 C 202.600 336.390,202.578 335.408,202.550 335.417 C 202.523 335.427,202.230 335.537,201.900 335.662 M222.550 337.755 C 220.504 337.977,219.800 338.123,219.800 338.327 C 219.800 338.480,220.006 338.600,220.269 338.600 C 220.817 338.600,221.400 339.170,221.400 339.706 C 221.400 340.155,217.222 354.035,217.023 354.248 C 216.815 354.469,209.800 341.360,209.800 340.750 C 209.800 340.181,210.262 339.600,210.714 339.600 C 210.871 339.600,211.000 339.453,211.000 339.274 C 211.000 339.011,210.857 338.971,210.250 339.066 C 209.838 339.130,208.308 339.293,206.850 339.428 C 204.123 339.681,203.351 340.033,205.032 340.259 C 206.344 340.435,206.814 341.091,212.008 350.000 C 217.865 360.044,217.213 359.212,217.709 357.280 C 217.876 356.631,219.292 352.373,220.856 347.818 C 223.906 338.937,224.188 338.352,225.559 338.078 C 226.202 337.950,226.264 337.374,225.629 337.428 C 225.448 337.444,224.063 337.591,222.550 337.755 M173.947 354.050 C 173.446 354.430,173.180 355.320,173.396 355.890 C 174.024 357.541,176.400 357.111,176.400 355.346 C 176.400 354.196,174.841 353.372,173.947 354.050 " stroke="none" fill="#043cd4" fill-rule="evenodd"></path><path id="path1" d="" stroke="none" fill="#083cd4" fill-rule="evenodd"></path><path id="path2" d="" stroke="none" fill="#083cd4" fill-rule="evenodd"></path><path id="path3" d="" stroke="none" fill="#083cd4" fill-rule="evenodd"></path><path id="path4" d="" stroke="none" fill="#083cd4" fill-rule="evenodd"></path></g></svg>